name ./resultDataOpenSim/trcMotMarkerGrf/sub09/grf-02-04.mot
datacolumns 19
datarows 12
range 1.38000000 1.42400000
endheader

                time	     ground_force_vx	     ground_force_vy	     ground_force_vz	     ground_force_px	     ground_force_py	     ground_force_pz	   l_ground_force_vx	   l_ground_force_vy	   l_ground_force_vz	   l_ground_force_px	   l_ground_force_py	   l_ground_force_pz	     ground_torque_x	     ground_torque_y	     ground_torque_z	   l_ground_torque_x	   l_ground_torque_y	   l_ground_torque_z	
          1.38000000	        -25.65172209	        426.29636946	        -16.31776782	          1.08671485	          0.00000000	          0.08150756	          0.00000000	          0.00000000	          0.00000000	          0.00000000	          0.00000000	          0.00000000	          0.00000000	          2.45498539	          0.00000000	          0.00000000	          0.00000000	          0.00000000	
          1.38400000	        -29.57178995	        416.39133097	        -14.16980258	          1.09048423	          0.00000000	          0.08118539	          0.00000000	          0.00000000	          0.00000000	          0.00000000	          0.00000000	          0.00000000	          0.00000000	          2.76129750	          0.00000000	          0.00000000	          0.00000000	          0.00000000	
          1.38800000	        -33.79156630	        407.02825569	        -12.98240443	          1.09437936	          0.00000000	          0.08082557	          0.00000000	          0.00000000	          0.00000000	          0.00000000	          0.00000000	          0.00000000	          0.00000000	          2.96175985	          0.00000000	          0.00000000	          0.00000000	          0.00000000	
          1.39200000	        -36.81126607	        398.15693774	        -12.54800158	          1.09816572	          0.00000000	          0.08046853	          0.00000000	          0.00000000	          0.00000000	          0.00000000	          0.00000000	          0.00000000	          0.00000000	          3.02791453	          0.00000000	          0.00000000	          0.00000000	          0.00000000	
          1.39600000	        -37.52745375	        389.80515135	        -12.49817523	          1.10158493	          0.00000000	          0.08013671	          0.00000000	          0.00000000	          0.00000000	          0.00000000	          0.00000000	          0.00000000	          0.00000000	          2.96558837	          0.00000000	          0.00000000	          0.00000000	          0.00000000	
          1.40000000	        -35.53525803	        382.07168682	        -12.40294089	          1.10448256	          0.00000000	          0.07983428	          0.00000000	          0.00000000	          0.00000000	          0.00000000	          0.00000000	          0.00000000	          0.00000000	          2.81301632	          0.00000000	          0.00000000	          0.00000000	          0.00000000	
          1.40400000	        -31.21680920	        375.09172949	        -11.87561207	          1.10685680	          0.00000000	          0.07956696	          0.00000000	          0.00000000	          0.00000000	          0.00000000	          0.00000000	          0.00000000	          0.00000000	          2.63007668	          0.00000000	          0.00000000	          0.00000000	          0.00000000	
          1.40800000	        -25.58644194	        369.00412198	        -10.65563466	          1.10886098	          0.00000000	          0.07931897	          0.00000000	          0.00000000	          0.00000000	          0.00000000	          0.00000000	          0.00000000	          0.00000000	          2.48295487	          0.00000000	          0.00000000	          0.00000000	          0.00000000	
          1.41200000	        -19.96979139	        363.92846012	         -8.65159911	          1.11070836	          0.00000000	          0.07906553	          0.00000000	          0.00000000	          0.00000000	          0.00000000	          0.00000000	          0.00000000	          0.00000000	          2.42895584	          0.00000000	          0.00000000	          0.00000000	          0.00000000	
          1.41600000	        -15.62850177	        359.96775041	         -5.94438682	          1.11259358	          0.00000000	          0.07877365	          0.00000000	          0.00000000	          0.00000000	          0.00000000	          0.00000000	          0.00000000	          0.00000000	          2.50448852	          0.00000000	          0.00000000	          0.00000000	          0.00000000	
          1.42000000	        -13.43106660	        357.20953715	         -2.76217000	          1.11462778	          0.00000000	          0.07841179	          0.00000000	          0.00000000	          0.00000000	          0.00000000	          0.00000000	          0.00000000	          0.00000000	          2.71736124	          0.00000000	          0.00000000	          0.00000000	          0.00000000	
          1.42400000	        -13.64498017	        355.68616005	          0.56993616	          1.11681680	          0.00000000	          0.07797429	          0.00000000	          0.00000000	          0.00000000	          0.00000000	          0.00000000	          0.00000000	          0.00000000	          3.04394503	          0.00000000	          0.00000000	          0.00000000	          0.00000000	
